<!DOCTYPE svg PUBLIC "-//W3C//DTD SVG 20010904//EN" "http://www.w3.org/TR/2001/REC-SVG-20010904/DTD/svg10.dtd">
<svg version="1.0" xmlns="http://www.w3.org/2000/svg" width="189px" height="192px" viewBox="0 0 1890 1920" preserveAspectRatio="xMidYMid meet">
<g id="layer101" fill="#543847" stroke="none">
 <path d="M0 960 l0 -960 720 0 720 0 0 960 0 960 -720 0 -720 0 0 -960z"/>
 <path d="M1477 1840 c-34 -27 -34 -35 2 -71 48 -48 91 -39 128 27 17 31 -2 51 -57 59 -37 5 -50 3 -73 -15z"/>
 <path d="M1476 1705 c-34 -37 -33 -49 8 -74 57 -36 88 -27 123 35 17 32 -2 51 -59 59 -43 7 -49 5 -72 -20z"/>
 <path d="M1460 892 c0 -390 -3 -750 -6 -800 l-7 -92 133 0 133 0 -7 92 c-3 50 -6 410 -6 800 l0 708 -120 0 -120 0 0 -708z"/>
 <path d="M1720 490 l0 -360 80 0 80 0 0 360 0 360 -80 0 -80 0 0 -360z"/>
 <path d="M1750 111 c-55 -17 -5 -111 59 -111 42 0 89 65 68 93 -14 18 -91 29 -127 18z"/>
 </g>
<g id="layer102" fill="#5a8625" stroke="none">
 <path d="M0 960 l0 -960 720 0 720 0 0 960 0 960 -720 0 -720 0 0 -960z"/>
 <path d="M1492 1841 c-10 -6 -8 -10 8 -14 28 -7 21 -30 -10 -37 l-24 -6 24 -17 c32 -22 49 -22 43 2 -3 10 0 22 7 26 8 5 8 10 -1 21 -12 15 -10 16 36 16 l30 -1 -30 8 c-41 12 -68 12 -83 2z"/>
 <path d="M1549 1817 c5 -5 21 -7 37 -5 27 3 26 4 -8 9 -22 3 -34 1 -29 -4z"/>
 <path d="M1460 1810 c0 -5 11 -10 25 -10 14 0 25 5 25 10 0 6 -11 10 -25 10 -14 0 -25 -4 -25 -10z"/>
 <path d="M1543 1784 c-9 -23 13 -40 32 -24 8 7 15 19 15 26 0 19 -39 18 -47 -2z"/>
 <path d="M1492 1713 c-8 -3 -5 -10 10 -23 22 -17 22 -19 5 -38 -16 -18 -16 -20 -2 -26 27 -10 33 -7 28 13 -3 10 0 22 7 26 8 5 8 10 -1 21 -12 15 -10 16 36 16 l30 -1 -30 8 c-35 10 -65 11 -83 4z"/>
 <path d="M1549 1687 c5 -5 21 -7 37 -5 27 3 26 4 -8 9 -22 3 -34 1 -29 -4z"/>
 <path d="M1467 1684 c-16 -16 -6 -35 16 -32 12 2 22 10 22 18 0 16 -26 25 -38 14z"/>
 <path d="M1543 1654 c-9 -23 13 -40 32 -24 8 7 15 19 15 26 0 19 -39 18 -47 -2z"/>
 <path d="M1470 860 l0 -740 110 0 110 0 0 740 0 740 -110 0 -110 0 0 -740z"/>
 <path d="M1720 495 l0 -355 80 0 80 0 0 355 0 355 -80 0 -80 0 0 -355z"/>
 <path d="M1460 60 l0 -50 120 0 120 0 0 50 0 50 -120 0 -120 0 0 -50z"/>
 <path d="M1770 101 c0 -6 5 -13 10 -16 15 -9 2 -25 -21 -25 -25 0 -24 -15 3 -34 30 -21 47 -20 41 3 -3 10 0 22 7 26 8 5 8 10 -1 21 -12 15 -10 16 36 16 l30 -1 -30 8 c-43 12 -75 13 -75 2z"/>
 <path d="M1730 85 c0 -10 10 -15 26 -15 22 0 25 2 14 15 -7 8 -19 15 -26 15 -8 0 -14 -7 -14 -15z"/>
 <path d="M1819 77 c5 -5 21 -7 37 -5 27 3 26 4 -8 9 -22 3 -34 1 -29 -4z"/>
 <path d="M1813 44 c-9 -23 13 -40 32 -24 8 7 15 19 15 26 0 19 -39 18 -47 -2z"/>
 </g>
<g id="layer103" fill="#ee5d17" stroke="none">
 <path d="M0 960 l0 -960 720 0 720 0 0 960 0 960 -720 0 -720 0 0 -960z"/>
 <path d="M1492 1841 c-10 -6 -8 -10 8 -14 28 -7 21 -30 -10 -37 l-24 -6 24 -17 c32 -22 49 -22 43 2 -3 10 0 22 7 26 8 5 8 10 -1 21 -12 15 -10 16 36 16 l30 -1 -30 8 c-41 12 -68 12 -83 2z"/>
 <path d="M1549 1817 c5 -5 21 -7 37 -5 27 3 26 4 -8 9 -22 3 -34 1 -29 -4z"/>
 <path d="M1460 1810 c0 -5 11 -10 25 -10 14 0 25 5 25 10 0 6 -11 10 -25 10 -14 0 -25 -4 -25 -10z"/>
 <path d="M1543 1784 c-9 -23 13 -40 32 -24 8 7 15 19 15 26 0 19 -39 18 -47 -2z"/>
 <path d="M1492 1713 c-8 -3 -5 -10 10 -23 22 -17 22 -19 5 -38 -16 -18 -16 -20 -2 -26 27 -10 33 -7 28 13 -3 10 0 22 7 26 8 5 8 10 -1 21 -12 15 -10 16 36 16 l30 -1 -30 8 c-35 10 -65 11 -83 4z"/>
 <path d="M1549 1687 c5 -5 21 -7 37 -5 27 3 26 4 -8 9 -22 3 -34 1 -29 -4z"/>
 <path d="M1467 1684 c-16 -16 -6 -35 16 -32 12 2 22 10 22 18 0 16 -26 25 -38 14z"/>
 <path d="M1543 1654 c-9 -23 13 -40 32 -24 8 7 15 19 15 26 0 19 -39 18 -47 -2z"/>
 <path d="M1470 865 l0 -735 75 0 75 0 0 735 0 735 -75 0 -75 0 0 -735z"/>
 <path d="M1720 550 l0 -300 80 0 80 0 0 300 0 300 -80 0 -80 0 0 -300z"/>
 <path d="M1720 190 l0 -50 80 0 80 0 0 50 0 50 -80 0 -80 0 0 -50z"/>
 <path d="M1770 101 c0 -6 5 -13 10 -16 15 -9 2 -25 -21 -25 -25 0 -24 -15 3 -34 30 -21 47 -20 41 3 -3 10 0 22 7 26 8 5 8 10 -1 21 -12 15 -10 16 36 16 l30 -1 -30 8 c-43 12 -75 13 -75 2z"/>
 <path d="M1460 55 l0 -45 98 1 c53 1 87 4 75 6 -19 4 -23 11 -23 44 l0 39 -75 0 -75 0 0 -45z"/>
 <path d="M1730 85 c0 -10 10 -15 26 -15 22 0 25 2 14 15 -7 8 -19 15 -26 15 -8 0 -14 -7 -14 -15z"/>
 <path d="M1819 77 c5 -5 21 -7 37 -5 27 3 26 4 -8 9 -22 3 -34 1 -29 -4z"/>
 <path d="M1813 44 c-9 -23 13 -40 32 -24 8 7 15 19 15 26 0 19 -39 18 -47 -2z"/>
 </g>
<g id="layer104" fill="#8db14a" stroke="none">
 <path d="M0 960 l0 -960 720 0 720 0 0 960 0 960 -720 0 -720 0 0 -960z"/>
 <path d="M1460 1810 c0 -5 11 -10 25 -10 14 0 25 5 25 10 0 6 -11 10 -25 10 -14 0 -25 -4 -25 -10z"/>
 <path d="M1516 1805 c-3 -8 -16 -15 -28 -15 l-23 -1 24 -19 c28 -24 53 -26 45 -5 -4 8 -1 21 5 29 6 7 8 16 4 19 -10 11 -20 8 -27 -8z"/>
 <path d="M1543 1784 c-9 -23 13 -40 32 -24 8 7 15 19 15 26 0 19 -39 18 -47 -2z"/>
 <path d="M1467 1684 c-16 -16 -6 -35 16 -32 12 2 22 10 22 18 0 16 -26 25 -38 14z"/>
 <path d="M1516 1677 c3 -8 -2 -20 -11 -27 -13 -11 -13 -15 -3 -21 21 -14 38 -10 32 6 -4 8 -1 21 5 29 12 14 5 26 -15 26 -8 0 -11 -6 -8 -13z"/>
 <path d="M1543 1654 c-9 -23 13 -40 32 -24 8 7 15 19 15 26 0 19 -39 18 -47 -2z"/>
 <path d="M1470 865 l0 -735 75 0 75 0 0 735 0 735 -75 0 -75 0 0 -735z"/>
 <path d="M1720 550 l0 -300 80 0 80 0 0 300 0 300 -80 0 -80 0 0 -300z"/>
 <path d="M1720 190 l0 -50 80 0 80 0 0 50 0 50 -80 0 -80 0 0 -50z"/>
 <path d="M1460 55 l0 -45 98 1 c53 1 87 4 75 6 -19 4 -23 11 -23 44 l0 39 -75 0 -75 0 0 -45z"/>
 <path d="M1730 85 c0 -10 10 -15 26 -15 22 0 25 2 14 15 -7 8 -19 15 -26 15 -8 0 -14 -7 -14 -15z"/>
 <path d="M1785 70 c-3 -5 -15 -10 -26 -10 -25 0 -24 -15 3 -34 29 -20 49 -21 42 -1 -4 8 -1 21 5 29 11 12 6 26 -10 26 -4 0 -11 -4 -14 -10z"/>
 <path d="M1813 44 c-9 -23 13 -40 32 -24 8 7 15 19 15 26 0 19 -39 18 -47 -2z"/>
 </g>
<g id="layer105" fill="#5dde72" stroke="none">
 <path d="M0 960 l0 -960 720 0 720 0 0 960 0 960 -720 0 -720 0 0 -960z"/>
 <path d="M1460 1810 c0 -5 11 -10 25 -10 14 0 25 5 25 10 0 6 -11 10 -25 10 -14 0 -25 -4 -25 -10z"/>
 <path d="M1516 1805 c-3 -8 -16 -15 -28 -15 l-23 -1 24 -19 c28 -24 53 -26 45 -5 -4 8 -1 21 5 29 6 7 8 16 4 19 -10 11 -20 8 -27 -8z"/>
 <path d="M1543 1784 c-9 -23 13 -40 32 -24 8 7 15 19 15 26 0 19 -39 18 -47 -2z"/>
 <path d="M1467 1684 c-16 -16 -6 -35 16 -32 12 2 22 10 22 18 0 16 -26 25 -38 14z"/>
 <path d="M1516 1677 c3 -8 -2 -20 -11 -27 -13 -11 -13 -15 -3 -21 21 -14 38 -10 32 6 -4 8 -1 21 5 29 12 14 5 26 -15 26 -8 0 -11 -6 -8 -13z"/>
 <path d="M1543 1654 c-9 -23 13 -40 32 -24 8 7 15 19 15 26 0 19 -39 18 -47 -2z"/>
 <path d="M1490 865 l0 -735 55 0 55 0 0 735 0 735 -55 0 -55 0 0 -735z"/>
 <path d="M1720 550 l0 -300 80 0 80 0 0 300 0 300 -80 0 -80 0 0 -300z"/>
 <path d="M1759 196 l44 -45 -44 -4 c-26 -2 -10 -4 39 -5 45 -1 82 1 82 5 0 4 -19 27 -42 50 -36 36 -48 43 -82 43 l-40 0 43 -44z"/>
 <path d="M1460 55 l0 -45 83 1 c45 1 72 4 60 6 -19 4 -23 11 -23 44 l0 39 -60 0 -60 0 0 -45z"/>
 <path d="M1730 85 c0 -10 10 -15 26 -15 22 0 25 2 14 15 -7 8 -19 15 -26 15 -8 0 -14 -7 -14 -15z"/>
 <path d="M1785 70 c-3 -5 -15 -10 -26 -10 -25 0 -24 -15 3 -34 29 -20 49 -21 42 -1 -4 8 -1 21 5 29 11 12 6 26 -10 26 -4 0 -11 -4 -14 -10z"/>
 <path d="M1813 44 c-9 -23 13 -40 32 -24 8 7 15 19 15 26 0 19 -39 18 -47 -2z"/>
 </g>
<g id="layer106" fill="#4ec0c9" stroke="none">
 <path d="M1460 1810 c0 -5 11 -10 25 -10 14 0 25 5 25 10 0 6 -11 10 -25 10 -14 0 -25 -4 -25 -10z"/>
 <path d="M1516 1805 c-3 -8 -16 -15 -28 -15 l-23 -1 24 -19 c28 -24 53 -26 45 -5 -4 8 -1 21 5 29 6 7 8 16 4 19 -10 11 -20 8 -27 -8z"/>
 <path d="M1543 1784 c-9 -23 13 -40 32 -24 8 7 15 19 15 26 0 19 -39 18 -47 -2z"/>
 <path d="M1467 1684 c-16 -16 -6 -35 16 -32 12 2 22 10 22 18 0 16 -26 25 -38 14z"/>
 <path d="M1516 1677 c3 -8 -2 -20 -11 -27 -13 -11 -13 -15 -3 -21 21 -14 38 -10 32 6 -4 8 -1 21 5 29 12 14 5 26 -15 26 -8 0 -11 -6 -8 -13z"/>
 <path d="M1543 1654 c-9 -23 13 -40 32 -24 8 7 15 19 15 26 0 19 -39 18 -47 -2z"/>
 <path d="M1490 865 l0 -735 55 0 55 0 0 735 0 735 -55 0 -55 0 0 -735z"/>
 <path d="M18 1552 c-17 -3 -18 -48 -18 -778 l0 -774 720 0 720 0 0 758 0 758 -46 17 c-39 14 -49 15 -72 3 -31 -16 -134 -14 -175 2 -22 9 -34 8 -62 -5 -28 -13 -39 -14 -60 -5 -18 9 -31 9 -49 0 -19 -8 -34 -7 -65 6 -38 15 -43 15 -76 -1 -33 -16 -37 -16 -72 2 -21 10 -42 17 -48 16 -5 -2 -24 -4 -40 -5 -17 -2 -39 -7 -50 -13 -25 -13 -131 -10 -168 5 -22 9 -34 8 -62 -5 -28 -13 -39 -14 -60 -5 -18 9 -31 9 -49 0 -19 -8 -34 -7 -65 6 -38 15 -43 15 -77 -1 -34 -17 -37 -17 -72 2 -21 11 -45 19 -54 17z"/>
 <path d="M1720 550 l0 -300 80 0 80 0 0 300 0 300 -80 0 -80 0 0 -300z"/>
 <path d="M1759 196 l44 -45 -44 -4 c-26 -2 -10 -4 39 -5 45 -1 82 1 82 5 0 4 -19 27 -42 50 -36 36 -48 43 -82 43 l-40 0 43 -44z"/>
 <path d="M1460 55 l0 -45 83 1 c45 1 72 4 60 6 -19 4 -23 11 -23 44 l0 39 -60 0 -60 0 0 -45z"/>
 <path d="M1730 85 c0 -10 10 -15 26 -15 22 0 25 2 14 15 -7 8 -19 15 -26 15 -8 0 -14 -7 -14 -15z"/>
 <path d="M1785 70 c-3 -5 -15 -10 -26 -10 -25 0 -24 -15 3 -34 29 -20 49 -21 42 -1 -4 8 -1 21 5 29 11 12 6 26 -10 26 -4 0 -11 -4 -14 -10z"/>
 <path d="M1813 44 c-9 -23 13 -40 32 -24 8 7 15 19 15 26 0 19 -39 18 -47 -2z"/>
 </g>
<g id="layer107" fill="#f1b438" stroke="none">
 <path d="M1460 1810 c0 -5 11 -10 25 -10 14 0 25 5 25 10 0 6 -11 10 -25 10 -14 0 -25 -4 -25 -10z"/>
 <path d="M1516 1805 c-3 -8 -16 -15 -28 -15 l-23 -1 24 -19 c28 -24 53 -26 45 -5 -4 8 -1 21 5 29 6 7 8 16 4 19 -10 11 -20 8 -27 -8z"/>
 <path d="M1543 1784 c-9 -23 13 -40 32 -24 8 7 15 19 15 26 0 19 -39 18 -47 -2z"/>
 <path d="M1467 1684 c-16 -16 -6 -35 16 -32 12 2 22 10 22 18 0 16 -26 25 -38 14z"/>
 <path d="M1516 1677 c3 -8 -2 -20 -11 -27 -13 -11 -13 -15 -3 -21 21 -14 38 -10 32 6 -4 8 -1 21 5 29 12 14 5 26 -15 26 -8 0 -11 -6 -8 -13z"/>
 <path d="M1543 1654 c-9 -23 13 -40 32 -24 8 7 15 19 15 26 0 19 -39 18 -47 -2z"/>
 <path d="M1490 865 l0 -735 55 0 55 0 0 735 0 735 -55 0 -55 0 0 -735z"/>
 <path d="M18 1552 c-16 -3 -18 -18 -18 -138 l0 -134 33 -20 c17 -11 43 -20 57 -20 32 0 85 33 101 62 6 13 13 25 15 26 1 2 19 -2 38 -9 30 -11 43 -11 72 0 33 12 37 11 50 -8 19 -26 66 -51 97 -51 13 0 41 11 61 25 l36 24 35 -20 c24 -14 46 -20 67 -17 21 3 43 -1 63 -13 38 -24 69 -24 121 0 40 18 40 18 68 -5 51 -44 109 -44 151 2 19 21 27 24 44 15 32 -17 65 -13 105 14 l36 25 33 -20 c37 -23 65 -25 101 -9 20 9 29 9 41 -1 13 -11 15 1 15 112 l0 124 -46 17 c-39 14 -49 15 -72 3 -31 -16 -134 -14 -175 2 -22 9 -34 8 -62 -5 -28 -13 -39 -14 -60 -5 -18 9 -31 9 -49 0 -19 -8 -34 -7 -65 6 -38 15 -43 15 -76 -1 -33 -16 -37 -16 -72 2 -21 10 -42 17 -48 16 -5 -2 -24 -4 -40 -5 -17 -2 -39 -7 -50 -13 -25 -13 -131 -10 -168 5 -22 9 -34 8 -62 -5 -28 -13 -39 -14 -60 -5 -18 9 -31 9 -49 0 -19 -8 -34 -7 -65 6 -38 15 -43 15 -77 -1 -34 -17 -37 -17 -72 2 -21 11 -45 19 -54 17z"/>
 <path d="M1720 550 l0 -300 80 0 80 0 0 300 0 300 -80 0 -80 0 0 -300z"/>
 <path d="M1759 196 l44 -45 -44 -4 c-26 -2 -10 -4 39 -5 45 -1 82 1 82 5 0 4 -19 27 -42 50 -36 36 -48 43 -82 43 l-40 0 43 -44z"/>
 <path d="M1460 55 l0 -45 83 1 c45 1 72 4 60 6 -19 4 -23 11 -23 44 l0 39 -60 0 -60 0 0 -45z"/>
 <path d="M1730 85 c0 -10 10 -15 26 -15 22 0 25 2 14 15 -7 8 -19 15 -26 15 -8 0 -14 -7 -14 -15z"/>
 <path d="M1785 70 c-3 -5 -15 -10 -26 -10 -25 0 -24 -15 3 -34 29 -20 49 -21 42 -1 -4 8 -1 21 5 29 11 12 6 26 -10 26 -4 0 -11 -4 -14 -10z"/>
 <path d="M1813 44 c-9 -23 13 -40 32 -24 8 7 15 19 15 26 0 19 -39 18 -47 -2z"/>
 </g>
<g id="layer108" fill="#ccdf82" stroke="none">
 <path d="M1460 1810 c0 -5 11 -10 25 -10 14 0 25 5 25 10 0 6 -11 10 -25 10 -14 0 -25 -4 -25 -10z"/>
 <path d="M1543 1780 c-6 -23 -15 -25 -46 -9 -18 9 -20 9 -10 -2 16 -16 74 -21 90 -7 20 16 15 38 -8 38 -12 0 -23 -8 -26 -20z"/>
 <path d="M1467 1684 c-16 -16 -6 -35 16 -32 12 2 22 10 22 18 0 16 -26 25 -38 14z"/>
 <path d="M1543 1649 c-5 -16 -11 -19 -32 -14 -14 4 -22 3 -18 -1 12 -12 71 -14 84 -2 20 16 15 38 -8 38 -13 0 -23 -8 -26 -21z"/>
 <path d="M1490 865 l0 -735 55 0 55 0 0 735 0 735 -55 0 -55 0 0 -735z"/>
 <path d="M18 1552 c-16 -3 -18 -18 -18 -138 l0 -134 33 -20 c17 -11 43 -20 57 -20 32 0 85 33 101 62 6 13 13 25 15 26 1 2 19 -2 38 -9 30 -11 43 -11 72 0 33 12 37 11 50 -8 19 -26 66 -51 97 -51 13 0 41 11 61 25 l36 24 35 -20 c24 -14 46 -20 67 -17 21 3 43 -1 63 -13 38 -24 69 -24 121 0 40 18 40 18 68 -5 51 -44 109 -44 151 2 19 21 27 24 44 15 32 -17 65 -13 105 14 l36 25 33 -20 c37 -23 65 -25 101 -9 20 9 29 9 41 -1 13 -11 15 1 15 112 l0 124 -46 17 c-39 14 -49 15 -72 3 -31 -16 -134 -14 -175 2 -22 9 -34 8 -62 -5 -28 -13 -39 -14 -60 -5 -18 9 -31 9 -49 0 -19 -8 -34 -7 -65 6 -38 15 -43 15 -76 -1 -33 -16 -37 -16 -72 2 -21 10 -42 17 -48 16 -5 -2 -24 -4 -40 -5 -17 -2 -39 -7 -50 -13 -25 -13 -131 -10 -168 5 -22 9 -34 8 -62 -5 -28 -13 -39 -14 -60 -5 -18 9 -31 9 -49 0 -19 -8 -34 -7 -65 6 -38 15 -43 15 -77 -1 -34 -17 -37 -17 -72 2 -21 11 -45 19 -54 17z"/>
 <path d="M1720 555 l0 -295 80 0 80 0 0 295 0 295 -80 0 -80 0 0 -295z"/>
 <path d="M1759 196 l44 -45 -44 -4 c-26 -2 -10 -4 39 -5 45 -1 82 1 82 5 0 4 -19 27 -42 50 -36 36 -48 43 -82 43 l-40 0 43 -44z"/>
 <path d="M1460 55 l0 -45 83 1 c45 1 72 4 60 6 -19 4 -23 11 -23 44 l0 39 -60 0 -60 0 0 -45z"/>
 <path d="M1730 85 c0 -10 10 -15 26 -15 22 0 25 2 14 15 -7 8 -19 15 -26 15 -8 0 -14 -7 -14 -15z"/>
 <path d="M1813 40 c-6 -23 -15 -25 -46 -9 -18 9 -20 9 -10 -2 16 -16 74 -21 90 -7 20 16 15 38 -8 38 -12 0 -23 -8 -26 -20z"/>
 </g>
<g id="layer109" fill="#a8dfce" stroke="none">
 <path d="M1465 1810 c-4 -6 5 -10 20 -10 15 0 24 4 20 10 -3 6 -12 10 -20 10 -8 0 -17 -4 -20 -10z"/>
 <path d="M1543 1784 c-9 -23 13 -40 32 -24 8 7 15 19 15 26 0 19 -39 18 -47 -2z"/>
 <path d="M1467 1674 c-14 -14 -7 -25 13 -22 12 2 21 8 21 13 0 12 -24 18 -34 9z"/>
 <path d="M1543 1654 c-9 -23 13 -40 32 -24 8 7 15 19 15 26 0 19 -39 18 -47 -2z"/>
 <path d="M0 1413 l0 -133 33 -20 c17 -11 43 -20 57 -20 32 0 85 33 101 62 6 13 13 25 15 26 1 2 19 -2 38 -9 30 -11 43 -11 72 0 33 12 37 11 50 -8 19 -26 66 -51 97 -51 13 0 41 11 61 25 l36 24 35 -20 c24 -14 46 -20 67 -17 21 3 43 -1 63 -13 38 -24 69 -24 121 0 40 18 40 18 68 -5 51 -44 109 -44 151 2 19 21 27 24 44 15 32 -17 65 -13 105 14 l36 25 33 -20 c37 -23 65 -25 101 -9 20 9 29 9 41 -1 13 -11 15 2 15 114 l0 126 -25 0 c-14 0 -25 5 -25 11 0 6 -7 9 -15 5 -8 -3 -15 -1 -15 4 0 5 -19 1 -42 -10 -29 -13 -47 -16 -59 -9 -10 5 -27 5 -39 1 -15 -6 -34 -2 -60 10 -37 19 -39 19 -69 0 -27 -16 -37 -18 -73 -8 -29 8 -42 8 -45 0 -4 -12 -63 -6 -63 7 0 13 -54 11 -84 -2 -19 -9 -33 -8 -63 3 -44 18 -94 16 -143 -5 -23 -10 -41 -12 -52 -6 -9 5 -26 5 -38 1 -15 -6 -34 -2 -60 10 -37 19 -38 19 -70 -1 -24 -14 -39 -17 -55 -11 -13 5 -46 6 -74 3 -33 -3 -51 -1 -51 5 0 7 -16 9 -42 6 -61 -7 -90 -7 -113 -1 -11 3 -20 6 -20 7 0 1 -10 3 -22 4 -23 3 -23 2 -23 -131z"/>
 <path d="M1758 143 c23 -2 61 -2 85 0 23 2 4 4 -43 4 -47 0 -66 -2 -42 -4z"/>
 <path d="M1730 90 c0 -13 28 -25 38 -16 3 4 0 11 -8 16 -20 13 -30 12 -30 0z"/>
 <path d="M1813 44 c-9 -23 13 -40 32 -24 8 7 15 19 15 26 0 19 -39 18 -47 -2z"/>
 </g>
<g id="layer110" fill="#e1f6d3" stroke="none">
 <path d="M1465 1810 c-4 -6 5 -10 20 -10 15 0 24 4 20 10 -3 6 -12 10 -20 10 -8 0 -17 -4 -20 -10z"/>
 <path d="M1543 1784 c-9 -23 13 -40 32 -24 8 7 15 19 15 26 0 19 -39 18 -47 -2z"/>
 <path d="M1467 1674 c-14 -14 -7 -25 13 -22 12 2 21 8 21 13 0 12 -24 18 -34 9z"/>
 <path d="M1543 1654 c-9 -23 13 -40 32 -24 8 7 15 19 15 26 0 19 -39 18 -47 -2z"/>
 <path d="M31 1535 c-1 -17 -3 -18 -11 -5 -7 11 -10 0 -10 -37 0 -50 1 -53 25 -53 23 0 25 4 25 46 0 25 -4 43 -9 39 -5 -3 -12 3 -14 12 -4 15 -5 15 -6 -2z"/>
 <path d="M426 1543 c-3 -4 -6 -30 -6 -60 0 -46 -2 -53 -20 -53 -11 0 -20 -4 -20 -10 0 -5 -7 -10 -15 -10 -8 0 -15 -9 -15 -20 0 -17 -7 -20 -40 -20 -42 0 -44 3 -53 75 l-4 30 -2 -32 c-1 -31 -3 -33 -36 -33 -24 0 -35 5 -35 15 0 8 -7 15 -15 15 -11 0 -15 11 -15 43 l0 42 -40 0 -40 0 0 -47 c0 -41 -3 -48 -20 -48 -11 0 -20 -4 -20 -10 0 -5 -7 -10 -15 -10 -12 0 -15 -14 -15 -65 0 -63 1 -66 32 -85 18 -11 44 -20 58 -20 32 0 85 33 101 62 6 13 13 25 15 26 1 2 19 -2 38 -9 30 -11 43 -11 72 0 33 12 37 11 50 -8 19 -26 66 -51 97 -51 13 0 41 11 61 25 l36 24 35 -20 c24 -14 46 -20 67 -17 21 3 43 -1 63 -13 38 -24 69 -24 121 0 40 18 40 18 68 -5 51 -44 109 -44 151 2 19 21 27 24 44 15 32 -17 65 -13 105 14 l36 25 33 -20 c37 -23 65 -25 101 -9 20 9 29 9 41 -1 13 -11 15 -3 15 69 0 65 -3 81 -15 81 -8 0 -15 -4 -15 -10 0 -5 -7 -10 -15 -10 -8 0 -15 -9 -15 -20 0 -17 -7 -20 -40 -20 -42 0 -44 3 -53 75 l-4 30 -2 -32 c-1 -31 -3 -33 -36 -33 -24 0 -35 5 -35 15 0 8 -7 15 -15 15 -11 0 -15 12 -15 44 0 40 -3 45 -29 54 -16 6 -32 8 -35 5 -3 -4 -6 -30 -6 -60 0 -46 -3 -53 -20 -53 -11 0 -20 -4 -20 -10 0 -5 -7 -10 -15 -10 -8 0 -15 -9 -15 -20 0 -17 -7 -20 -40 -20 -42 0 -44 3 -53 75 l-4 30 -2 -32 c-1 -31 -3 -33 -36 -33 -24 0 -35 5 -35 15 0 8 -7 15 -15 15 -11 0 -15 11 -15 43 l0 42 -40 0 -40 0 0 -47 c0 -41 -3 -48 -20 -48 -11 0 -20 -4 -20 -10 0 -5 -7 -10 -15 -10 -8 0 -15 -9 -15 -20 0 -17 -7 -20 -40 -20 -42 0 -44 3 -53 75 l-4 30 -2 -32 c-1 -31 -3 -33 -36 -33 -24 0 -35 5 -35 15 0 8 -7 15 -15 15 -11 0 -15 12 -15 44 0 40 -3 45 -29 54 -16 6 -32 8 -35 5z"/>
 <path d="M707 1543 c-4 -3 -7 -28 -7 -55 0 -45 2 -48 25 -48 24 0 25 3 25 53 0 37 -3 48 -10 37 -8 -13 -10 -12 -10 3 0 17 -11 22 -23 10z"/>
 <path d="M169 1535 c0 -5 -2 -27 -3 -47 -1 -35 0 -38 26 -38 28 0 39 22 18 35 -6 4 -9 12 -8 18 2 7 -1 13 -6 14 -5 1 -13 7 -17 15 -5 7 -9 9 -10 3z"/>
 <path d="M634 1525 c-4 -8 -10 -12 -15 -9 -5 3 -9 -22 -9 -55 0 -54 2 -61 20 -61 11 0 20 -4 20 -10 0 -5 7 -10 15 -10 12 0 15 16 15 80 0 74 -2 80 -20 80 -11 0 -23 -7 -26 -15z"/>
 <path d="M859 1535 c0 -5 -2 -27 -3 -47 -1 -35 0 -38 26 -38 28 0 39 22 17 35 -6 4 -8 13 -6 19 3 7 1 19 -4 27 -7 12 -9 12 -9 -1 0 -13 -1 -13 -10 0 -5 8 -10 11 -11 5z"/>
 <path d="M1324 1526 c-3 -9 -10 -13 -15 -10 -5 3 -9 -22 -9 -55 0 -54 2 -61 20 -61 11 0 20 -4 20 -10 0 -5 7 -10 15 -10 13 0 15 13 13 77 -3 65 -6 78 -21 81 -9 2 -20 -4 -23 -12z"/>
 <path d="M311 1523 c-1 -6 -10 -10 -21 -8 -18 4 -20 -2 -20 -56 0 -52 2 -59 20 -59 11 0 20 -4 20 -10 0 -5 7 -10 15 -10 12 0 15 15 15 71 0 40 -4 68 -9 65 -5 -4 -12 0 -14 6 -4 9 -6 10 -6 1z"/>
 <path d="M383 1520 c-18 -7 -23 -17 -23 -45 0 -31 3 -35 25 -35 23 0 25 4 25 45 0 25 -1 45 -2 44 -2 0 -13 -4 -25 -9z"/>
 <path d="M973 1514 c-7 -7 -13 -36 -13 -64 0 -43 3 -50 20 -50 11 0 20 -4 20 -10 0 -5 7 -10 15 -10 12 0 15 15 15 71 0 44 -4 68 -10 64 -5 -3 -10 0 -10 7 0 10 -2 10 -9 -1 -5 -7 -10 -9 -12 -3 -2 6 -9 5 -16 -4z"/>
 <path d="M1073 1520 c-18 -7 -23 -17 -23 -45 0 -31 3 -35 25 -35 23 0 25 4 25 45 0 25 -1 45 -2 44 -2 0 -13 -4 -25 -9z"/>
 <path d="M221 1508 c-1 -10 6 -18 14 -18 8 0 15 8 15 18 0 13 -2 14 -9 3 -7 -11 -9 -11 -14 0 -4 10 -6 9 -6 -3z"/>
 <path d="M509 1508 c0 -7 -2 -23 -3 -35 -2 -19 2 -23 26 -23 28 0 39 22 17 35 -6 4 -8 13 -5 21 3 9 -2 14 -14 14 -11 0 -20 -6 -21 -12z"/>
 <path d="M561 1508 c-1 -10 6 -18 14 -18 8 0 15 5 15 11 0 5 -4 8 -9 5 -5 -4 -12 0 -14 6 -3 8 -6 6 -6 -4z"/>
 <path d="M911 1508 c-1 -10 6 -18 14 -18 8 0 15 8 15 18 0 13 -2 14 -9 3 -7 -11 -9 -11 -14 0 -4 10 -6 9 -6 -3z"/>
 <path d="M1199 1508 c0 -7 -2 -23 -3 -35 -2 -19 2 -23 26 -23 28 0 39 22 17 35 -6 4 -8 13 -5 21 3 9 -2 14 -14 14 -11 0 -20 -6 -21 -12z"/>
 <path d="M1251 1508 c-1 -10 6 -18 14 -18 8 0 15 5 15 11 0 5 -4 8 -9 5 -5 -4 -12 0 -14 6 -3 8 -6 6 -6 -4z"/>
 <path d="M1390 1480 c0 -36 3 -40 25 -40 23 0 25 4 25 40 0 36 -2 40 -25 40 -22 0 -25 -4 -25 -40z"/>
 <path d="M190 1428 c0 -4 9 -8 20 -8 11 0 20 4 20 9 0 6 -9 9 -20 8 -11 -1 -20 -5 -20 -9z"/>
 <path d="M530 1428 c0 -4 9 -8 20 -8 11 0 20 4 20 9 0 6 -9 9 -20 8 -11 -1 -20 -5 -20 -9z"/>
 <path d="M880 1428 c0 -4 9 -8 20 -8 11 0 20 4 20 9 0 6 -9 9 -20 8 -11 -1 -20 -5 -20 -9z"/>
 <path d="M1220 1428 c0 -4 9 -8 20 -8 11 0 20 4 20 9 0 6 -9 9 -20 8 -11 -1 -20 -5 -20 -9z"/>
 <path d="M1758 143 c23 -2 61 -2 85 0 23 2 4 4 -43 4 -47 0 -66 -2 -42 -4z"/>
 <path d="M1730 90 c0 -13 28 -25 38 -16 3 4 0 11 -8 16 -20 13 -30 12 -30 0z"/>
 <path d="M1813 44 c-9 -23 13 -40 32 -24 8 7 15 19 15 26 0 19 -39 18 -47 -2z"/>
 </g>

</svg>